<svg width="16" height="14" viewBox="0 0 16 14" fill="none" xmlns="http://www.w3.org/2000/svg">
<path d="M9.40747 5.34875C9.5692 5.33354 9.71705 5.44565 9.76001 5.59583L9.77954 5.66614L9.77368 5.66907C9.774 5.67066 9.77432 5.67229 9.77466 5.67395C9.78289 5.71475 9.79425 5.7727 9.80591 5.84387C9.82919 5.98614 9.85442 6.18387 9.86157 6.41711C9.87583 6.88305 9.81888 7.49615 9.52954 8.09875L9.52856 8.10071C9.20059 8.75576 8.5634 9.49296 8.32544 9.75305C8.33329 9.8848 8.34387 9.99273 8.35278 10.0695C8.35764 10.1112 8.36138 10.1442 8.3645 10.1661C8.36607 10.1771 8.36756 10.1861 8.36841 10.1915C8.36857 10.1926 8.36828 10.1936 8.36841 10.1945C8.4136 10.384 8.27373 10.5628 8.09204 10.5861L8.07935 10.588V10.587H8.03149C7.88386 10.587 7.72639 10.4853 7.69556 10.3224C7.69216 10.3125 7.68832 10.3036 7.68677 10.297C7.68372 10.2839 7.68089 10.2675 7.67798 10.2501C7.67215 10.2153 7.66647 10.1692 7.6604 10.1144C7.64858 10.0076 7.63636 9.86367 7.62817 9.69348C7.62172 9.67782 7.61159 9.65536 7.59595 9.62415C7.58106 9.59443 7.56394 9.5586 7.5481 9.52161C7.29637 9.27663 6.91327 8.86362 6.61255 8.35852C6.30706 7.84525 6.07936 7.22515 6.17212 6.58508C6.17815 6.44826 6.26666 6.34613 6.37915 6.30676L6.43091 6.29309C6.97642 6.15866 7.38933 6.30935 7.65356 6.47766C7.99802 5.9844 8.40509 5.70292 8.74048 5.54504C8.91712 5.46192 9.07359 5.41229 9.1897 5.38391C9.28667 5.36023 9.35989 5.35215 9.3938 5.34973V5.34875C9.39637 5.3484 9.39904 5.34905 9.40161 5.34875C9.40383 5.34866 9.4058 5.34778 9.40747 5.34778V5.34875ZM9.13794 6.12317C8.97835 6.18263 8.77769 6.28552 8.57251 6.45813C8.68548 6.39547 8.82671 6.40723 8.93774 6.48645C9.09927 6.60195 9.11759 6.81015 9.00903 6.96204V6.96301C8.62957 7.48184 8.44519 8.07563 8.35571 8.61047C8.56107 8.34461 8.76617 8.04444 8.90259 7.77161C9.20829 7.1597 9.19912 6.49444 9.13794 6.12317ZM8.46997 6.54797C8.30748 6.70395 8.14682 6.90752 8.00806 7.17395C7.91373 7.37116 7.8614 7.57608 7.84106 7.7804C7.9752 7.36687 8.17218 6.94514 8.46216 6.55774C8.4646 6.55433 8.46745 6.55126 8.46997 6.54797ZM6.82251 6.93567C6.82584 7.03689 6.83686 7.13841 6.85864 7.23938C6.88052 7.17824 6.92081 7.12178 6.98169 7.07825L6.99048 7.07239C7.06083 7.03226 7.14344 7.01578 7.2229 7.02551C7.12139 6.97452 6.98865 6.93567 6.82251 6.93567Z" fill="#213F7D" stroke="#213F7D" stroke-width="0.2"/>
<path d="M4.80029 4.42035C4.98355 4.42048 5.14014 4.57692 5.14014 4.76019V10.8403C5.13996 11.0234 4.98344 11.18 4.80029 11.1801C4.61704 11.1801 4.46063 11.0235 4.46045 10.8403V4.76019C4.46045 4.57684 4.61694 4.42035 4.80029 4.42035Z" fill="#213F7D" stroke="#213F7D" stroke-width="0.2"/>
<path d="M3.2002 4.42035C3.38345 4.42048 3.54004 4.57692 3.54004 4.76019V10.8403C3.53986 11.0234 3.38334 11.18 3.2002 11.1801C3.01695 11.1801 2.86053 11.0235 2.86035 10.8403V4.76019C2.86035 4.57684 3.01684 4.42035 3.2002 4.42035Z" fill="#213F7D" stroke="#213F7D" stroke-width="0.2"/>
<path d="M11.2002 4.42035C11.3834 4.42048 11.54 4.57692 11.54 4.76019V10.8403C11.5399 11.0234 11.3833 11.18 11.2002 11.1801C11.0169 11.1801 10.8605 11.0235 10.8604 10.8403V4.76019C10.8604 4.57684 11.0168 4.42035 11.2002 4.42035Z" fill="#213F7D" stroke="#213F7D" stroke-width="0.2"/>
<path d="M12.8003 4.42035C12.9835 4.42048 13.1401 4.57692 13.1401 4.76019V10.8403C13.14 11.0234 12.9834 11.18 12.8003 11.1801C12.617 11.1801 12.4606 11.0235 12.4604 10.8403V4.76019C12.4604 4.57684 12.6169 4.42035 12.8003 4.42035Z" fill="#213F7D" stroke="#213F7D" stroke-width="0.2"/>
<path d="M7.83618 0.465942C7.94323 0.401549 8.08406 0.395122 8.18677 0.471802L13.5208 3.64856C13.6353 3.70074 13.716 3.83048 13.7161 3.95911V3.9718L13.7141 3.97083C13.7005 4.08283 13.6324 4.18724 13.5354 4.24719L13.5823 4.29993H2.63989C2.48447 4.29986 2.34211 4.18962 2.31763 4.04016L2.3186 4.03918C2.27903 3.88182 2.35227 3.74951 2.4729 3.66907L2.47681 3.66614L7.83618 0.466919V0.465942ZM3.86548 3.62024H12.1194L7.99927 1.14758L3.86548 3.62024Z" fill="#213F7D" stroke="#213F7D" stroke-width="0.2"/>
<path d="M13.3601 11.3004C13.5435 11.3004 13.7 11.4568 13.7 11.6402C13.6998 11.8235 13.5434 11.98 13.3601 11.98H2.64038C2.45711 11.98 2.30067 11.8235 2.30054 11.6402C2.30054 11.4568 2.45703 11.3004 2.64038 11.3004H13.3601Z" fill="#213F7D" stroke="#213F7D" stroke-width="0.2"/>
<path d="M14.1597 12.1003C14.343 12.1003 14.5005 12.2568 14.5005 12.4402C14.5004 12.6234 14.3429 12.78 14.1597 12.78H1.84033C1.65706 12.78 1.50062 12.6234 1.50049 12.4402C1.50049 12.2568 1.65698 12.1003 1.84033 12.1003H14.1597Z" fill="#213F7D" stroke="#213F7D" stroke-width="0.2"/>
<path d="M14.9602 12.9003C15.1435 12.9004 15.3 13.0569 15.3 13.2402C15.2999 13.4234 15.1434 13.5799 14.9602 13.58H1.04028C0.857008 13.58 0.700573 13.4234 0.700439 13.2402C0.700439 13.0568 0.85693 12.9003 1.04028 12.9003H14.9602Z" fill="#213F7D" stroke="#213F7D" stroke-width="0.2"/>
</svg>
