<svg width="16" height="18" viewBox="0 0 16 18" fill="none" xmlns="http://www.w3.org/2000/svg">
<path d="M10.625 -0.0996094C11.9713 -0.099582 13.2046 0.131079 14.1055 0.53418C14.9998 0.934439 15.6006 1.52193 15.6006 2.25C15.6006 2.97807 14.9998 3.56556 14.1055 3.96582C13.2046 4.36892 11.9713 4.59958 10.625 4.59961C9.2789 4.59961 8.04534 4.36898 7.14453 3.96582C6.25029 3.56556 5.65039 2.97807 5.65039 2.25C5.65039 1.52193 6.25029 0.934439 7.14453 0.53418C8.04534 0.131021 9.2789 -0.0996094 10.625 -0.0996094ZM10.625 0.850586C9.48604 0.850586 8.467 1.03887 7.73633 1.31641C7.37056 1.45534 7.08125 1.61488 6.88574 1.78027C6.68851 1.9472 6.60059 2.10808 6.60059 2.25C6.60059 2.39192 6.68851 2.5528 6.88574 2.71973C7.08125 2.88512 7.37056 3.04466 7.73633 3.18359C8.467 3.46113 9.48604 3.64941 10.625 3.64941C11.7639 3.64939 12.7829 3.46113 13.5137 3.18359C13.8795 3.04466 14.1687 2.88512 14.3643 2.71973C14.5616 2.55277 14.6504 2.39193 14.6504 2.25C14.6504 2.10807 14.5616 1.94723 14.3643 1.78027C14.1687 1.61488 13.8795 1.45534 13.5137 1.31641C12.7829 1.03887 11.7639 0.850612 10.625 0.850586Z" fill="#FF3366" stroke="#FF3366" stroke-width="0.2"/>
<path d="M6.60059 2.15039V4.5C6.60059 4.64192 6.68851 4.8028 6.88574 4.96973C7.08125 5.13512 7.37056 5.29466 7.73633 5.43359C8.467 5.71113 9.48604 5.89941 10.625 5.89941C11.7639 5.89939 12.7829 5.71112 13.5137 5.43359C13.8795 5.29466 14.1687 5.13512 14.3643 4.96973C14.5616 4.80277 14.6504 4.64193 14.6504 4.5V2.15039H15.6006V4.5C15.6006 5.22807 14.9998 5.81556 14.1055 6.21582C13.2046 6.61892 11.9713 6.84958 10.625 6.84961C9.2789 6.84961 8.04534 6.61898 7.14453 6.21582C6.25029 5.81556 5.65039 5.22807 5.65039 4.5V2.15039H6.60059Z" fill="#FF3366" stroke="#FF3366" stroke-width="0.2"/>
<path d="M15.6006 4.40033V6.74994C15.6006 7.47801 14.9998 8.0655 14.1055 8.46576C13.2046 8.86886 11.9713 9.09952 10.625 9.09955C10.2407 9.09955 9.86531 9.08103 9.50488 9.04486L9.50098 8.94525L9.41504 8.9472C9.40594 8.56978 9.39943 8.31446 9.39941 8.24994C9.39941 8.23408 9.39873 8.21696 9.39648 8.20013L9.37988 8.07318L9.50684 8.08783C9.86159 8.12817 10.2363 8.14935 10.625 8.14935C11.7639 8.14933 12.7829 7.96106 13.5137 7.68353C13.8795 7.5446 14.1687 7.38506 14.3643 7.21967C14.5616 7.05271 14.6504 6.89187 14.6504 6.74994V4.40033H15.6006ZM6.60059 4.40033V6.74994C6.60059 6.76643 6.60126 6.78284 6.60352 6.79974L6.62012 6.9267L6.49316 6.91205C6.25315 6.88492 6.00295 6.86641 5.74609 6.85736L5.73828 6.85638L5.72949 6.85443L5.65039 6.83881V4.40033H6.60059Z" fill="#FF3366" stroke="#FF3366" stroke-width="0.2"/>
<path d="M15.6006 6.65045V9.00006C15.6006 9.72813 14.9998 10.3156 14.1055 10.7159C13.2046 11.119 11.9713 11.3496 10.625 11.3497C10.2612 11.3497 9.90532 11.3335 9.5625 11.3008L9.30957 11.2764L9.4707 11.1514C9.46423 10.9101 9.45805 10.6738 9.45215 10.4464L9.44922 10.3321L9.56348 10.3438C9.90079 10.38 10.2574 10.3995 10.625 10.3995C11.7639 10.3994 12.7829 10.2112 13.5137 9.93365C13.8795 9.79473 14.1687 9.63517 14.3643 9.46979C14.5616 9.30285 14.6504 9.14198 14.6504 9.00006V6.65045H15.6006ZM6.60059 6.65045V6.92389L6.48926 6.91119C6.24972 6.88473 6.00153 6.86653 5.74609 6.85748L5.65039 6.85358V6.65045H6.60059Z" fill="#FF3366" stroke="#FF3366" stroke-width="0.2"/>
<path d="M5.375 6.65039C6.721 6.65039 7.95468 6.88108 8.85547 7.28418C9.74971 7.68444 10.3506 8.27193 10.3506 9C10.3506 9.72807 9.74971 10.3156 8.85547 10.7158C7.95468 11.1189 6.721 11.3496 5.375 11.3496C4.02869 11.3496 2.79533 11.119 1.89453 10.7158C1.0002 10.3156 0.400391 9.72807 0.400391 9C0.400391 8.27193 1.0002 7.68444 1.89453 7.28418C2.79533 6.88105 4.02869 6.65045 5.375 6.65039ZM5.375 7.60059C4.23621 7.60064 3.21709 7.7889 2.48633 8.06641C2.12076 8.20526 1.83225 8.365 1.63672 8.53027C1.43924 8.69728 1.35059 8.85803 1.35059 9C1.35059 9.14196 1.43924 9.30272 1.63672 9.46973C1.83225 9.635 2.12076 9.79474 2.48633 9.93359C3.21709 10.2111 4.23621 10.3994 5.375 10.3994C6.51385 10.3994 7.53301 10.2111 8.26367 9.93359C8.62944 9.79466 8.91875 9.63512 9.11426 9.46973C9.31159 9.30276 9.40039 9.14195 9.40039 9C9.40039 8.85805 9.31159 8.69724 9.11426 8.53027C8.91875 8.36488 8.62944 8.20534 8.26367 8.06641C7.53301 7.78891 6.51385 7.60059 5.375 7.60059Z" fill="#FF3366" stroke="#FF3366" stroke-width="0.2"/>
<path d="M1.35059 8.90039V11.25C1.35059 11.392 1.43924 11.5527 1.63672 11.7197C1.83225 11.885 2.12076 12.0447 2.48633 12.1836C3.21709 12.4611 4.23621 12.6494 5.375 12.6494C6.51385 12.6494 7.53301 12.4611 8.26367 12.1836C8.62944 12.0447 8.91875 11.8851 9.11426 11.7197C9.31159 11.5528 9.40039 11.392 9.40039 11.25V8.90039H10.3506V11.25C10.3506 11.9781 9.74971 12.5656 8.85547 12.9658C7.95468 13.3689 6.721 13.5996 5.375 13.5996C4.02869 13.5996 2.79533 13.369 1.89453 12.9658C1.0002 12.5656 0.400391 11.9781 0.400391 11.25V8.90039H1.35059Z" fill="#FF3366" stroke="#FF3366" stroke-width="0.2"/>
<path d="M1.35059 11.1504V13.5C1.35059 13.642 1.43924 13.8027 1.63672 13.9697C1.83225 14.135 2.12076 14.2947 2.48633 14.4336C3.21709 14.7111 4.23621 14.8994 5.375 14.8994C6.51385 14.8994 7.53301 14.7111 8.26367 14.4336C8.62944 14.2947 8.91875 14.1351 9.11426 13.9697C9.31159 13.8028 9.40039 13.642 9.40039 13.5V11.1504H10.3506V13.5C10.3506 14.2281 9.74971 14.8156 8.85547 15.2158C7.95468 15.6189 6.721 15.8496 5.375 15.8496C4.02869 15.8496 2.79533 15.619 1.89453 15.2158C1.0002 14.8156 0.400391 14.2281 0.400391 13.5V11.1504H1.35059Z" fill="#FF3366" stroke="#FF3366" stroke-width="0.2"/>
<path d="M1.35059 13.4004V15.75C1.35059 15.892 1.43924 16.0527 1.63672 16.2197C1.83225 16.385 2.12076 16.5447 2.48633 16.6836C3.21709 16.9611 4.23621 17.1494 5.375 17.1494C6.51385 17.1494 7.53301 16.9611 8.26367 16.6836C8.62944 16.5447 8.91875 16.3851 9.11426 16.2197C9.31159 16.0528 9.40039 15.892 9.40039 15.75V13.4004H10.3506V15.75C10.3506 16.4781 9.74971 17.0656 8.85547 17.4658C7.95468 17.8689 6.721 18.0996 5.375 18.0996C4.02869 18.0996 2.79533 17.869 1.89453 17.4658C1.0002 17.0656 0.400391 16.4781 0.400391 15.75V13.4004H1.35059Z" fill="#FF3366" stroke="#FF3366" stroke-width="0.2"/>
<path d="M15.6006 8.90042V11.25C15.6006 11.9781 14.9998 12.5656 14.1055 12.9659C13.2046 13.3689 11.9713 13.5996 10.625 13.5996C10.2825 13.5996 9.94745 13.5848 9.62305 13.5557L9.5625 13.5508L9.53906 13.4942L9.53223 13.4776V13.459C9.5259 13.2153 9.51903 12.961 9.5127 12.7022L9.50977 12.5889L9.62207 12.6006C9.94222 12.6326 10.2782 12.6494 10.625 12.6494C11.7639 12.6494 12.7828 12.4612 13.5137 12.1836C13.8795 12.0447 14.1687 11.8852 14.3643 11.7198C14.5616 11.5528 14.6504 11.392 14.6504 11.25V8.90042H15.6006Z" fill="#FF3366" stroke="#FF3366" stroke-width="0.2"/>
<path d="M15.6006 11.1504V13.5C15.6006 14.228 15.0005 14.8156 14.1064 15.2158C13.2056 15.619 11.9715 15.8496 10.625 15.8496C10.3046 15.8496 9.98969 15.8363 9.68555 15.8115L9.62109 15.8066L9.59961 15.7461L9.59375 15.7305V15.7148C9.59093 15.6183 9.58378 15.345 9.57324 14.958L9.56934 14.8457L9.68262 14.8555C9.98454 14.884 10.2999 14.8994 10.625 14.8994C11.7639 14.8994 12.7828 14.7111 13.5137 14.4336C13.8795 14.2947 14.1687 14.1351 14.3643 13.9697C14.5617 13.8027 14.6504 13.6419 14.6504 13.5V11.1504H15.6006Z" fill="#FF3366" stroke="#FF3366" stroke-width="0.2"/>
</svg>
